<svg width="5767" height="5767" viewBox="0 0 5767 5767" fill="none" xmlns="http://www.w3.org/2000/svg">
<path d="M2883.5 0C1293.54 0 0 1293.53 0 2883.47C0 4473.45 1293.54 5767 2883.5 5767C4473.46 5767 5767 4473.45 5767 2883.47C5767 1293.53 4473.47 0 2883.5 0ZM2883.5 5433.96C1477.18 5433.96 333.04 4289.82 333.04 2883.47C333.04 1477.17 1477.18 333.04 2883.5 333.04C4289.82 333.04 5433.96 1477.17 5433.96 2883.47C5433.96 4289.82 4289.82 5433.96 2883.5 5433.96Z" fill="#3D6889"/>
<path d="M3277.01 3041.47L3917.13 1850.74L2726.49 2490.96L3277.01 3041.47Z" fill="#73D0F4"/>
<path d="M4471.03 1363.85C4427.47 1282.83 4326.52 1252.49 4245.51 1296.04L2371.26 2303.83C2342.49 2319.3 2318.9 2342.88 2303.44 2371.66L1296.05 4245.49C1260.42 4311.78 1274.29 4391.45 1324.92 4442.07C1336.14 4453.31 1349.17 4463.11 1363.9 4471C1413.96 4497.92 1471.66 4496.54 1518.7 4472.46L1518.73 4472.5L1519.44 4472.13C1520.12 4471.78 1520.78 4471.41 1521.45 4471.05L3396.62 3463.99C3425.4 3448.53 3448.97 3424.95 3464.46 3396.17L4467.81 1526.97C4470 1523.2 4472.1 1519.38 4473.99 1515.46L4475.35 1512.94L4475.18 1512.89C4496.51 1466.92 4496.86 1411.91 4471.03 1363.85ZM1850.74 3917.08L2490.89 2726.35L3041.37 3276.85L1850.74 3917.08ZM3277.01 3041.47L2726.5 2490.96L3917.13 1850.74L3277.01 3041.47Z" fill="#3D6889"/>
</svg>
