<?xml version="1.0" encoding="UTF-8"?>
<svg width="26px" height="27px" viewBox="0 0 26 27" version="1.1" xmlns="http://www.w3.org/2000/svg" xmlns:xlink="http://www.w3.org/1999/xlink">
    <title>Group</title>
    <g id="Symbols" stroke="none" stroke-width="1" fill="none" fill-rule="evenodd">
        <g id="Tab-Explore-Fill" transform="translate(-11.000000, -7.000000)" fill="#000000" fill-rule="nonzero">
            <g id="Group" transform="translate(11.000000, 7.000000)">
                <path d="M22.3174904,13.8592027 L22.3174904,0.00523141212 L15.2856631,2.57517917 L15.2856631,9.83094911 C15.5328427,9.80378815 15.7838889,9.78956136 16.0382672,9.78956136 C18.8273762,9.78956136 21.2347065,11.4613617 22.3172265,13.859004 L22.3174904,13.8592027 Z" id="Path"></path>
                <path d="M14.6753187,9.92571051 L14.6753187,2.57524539 L7.64217172,0.00529763252 L7.64217172,16.3968349 L9.15589182,16.9987651 C9.15176787,16.9007258 9.14919057,16.8024349 9.14919057,16.7033625 C9.14919057,13.359232 11.5271583,10.5622144 14.6753187,9.92570389 L14.6753187,9.92571051 Z" id="Path"></path>
                <polygon id="Path" points="1.87535472e-15 18.9608228 7.03182732 16.390875 7.03182732 0 0 2.47935824"></polygon>
                <path d="M25.8205374,25.9536977 L20.7403605,20.8751885 C21.7210685,19.7631492 22.3174904,18.3021946 22.3174904,16.7035678 C22.3174904,13.2287844 19.5008005,10.4020339 16.0385312,10.4020339 C12.5762618,10.4020339 9.75957192,13.2288506 9.75957192,16.7035678 C9.75957192,20.178285 12.5762618,23.0051017 16.0385312,23.0051017 C17.4690465,23.0051017 18.7887101,22.5216397 19.8456946,21.7098967 L24.958863,26.8215161 C25.0779429,26.9405076 25.2338809,27 25.389555,27 C25.5460078,27 25.7027178,26.9399878 25.822055,26.8197017 C26.0599573,26.5801692 26.0591853,26.1924157 25.8205085,25.9536712 L25.8205374,25.9536977 Z M16.4133156,12.8685454 C14.1925858,12.8685454 12.3857684,14.6810641 12.3857684,16.9087848 C12.3857684,17.0779581 12.2491634,17.2150542 12.0805962,17.2150542 C11.912029,17.2150542 11.775424,17.0779581 11.775424,16.9087848 C11.775424,14.3432738 13.8559396,12.2560066 16.4130517,12.2560066 C16.5816189,12.2560066 16.7182243,12.3931027 16.7182243,12.562276 C16.7184817,12.7314493 16.5818763,12.8685454 16.413309,12.8685454 L16.4133156,12.8685454 Z" id="Shape"></path>
            </g>
        </g>
    </g>
</svg>