<svg width="5948" height="5948" viewBox="0 0 5948 5948" fill="none" xmlns="http://www.w3.org/2000/svg">
<path d="M2978.31 0C1335.82 0 0 1331.5 0 2974C0 4251.33 807.881 5340.58 1939.62 5761.78L5784.88 1998.71C5382.29 835.242 4279.2 0 2978.31 0Z" fill="#3D6889"/>
<path d="M5948 2974C5948 2632.43 5890.24 2304.41 5784.26 1998.92L5211.78 1426.43L744.832 4034.5L1401.5 4691.17L1262.05 5085.75L1939.16 5762.87C2261.47 5882.51 2614.37 5948 2978.29 5948C4620.79 5948 5948 4616.5 5948 2974Z" fill="#3D6889"/>
<path d="M5211.78 1426.45V4034.52H2978.29L2586.13 2730.48L2978.29 1426.45H5211.78Z" fill="#71E2F0"/>
<path d="M2978.29 1426.45V4034.52H2313.16L1262.05 5085.76V4034.52H744.832V1426.45H2978.29Z" fill="#C2FBFF"/>
<path d="M4953.17 1685.06V3775.91H2978.29L2719.7 2730.48L2978.29 1685.06H4953.17Z" fill="#C2FBFF"/>
<path d="M2978.29 1685.06H1003.44V3775.91H2978.29V1685.06Z" fill="white"/>
<path d="M4691.46 2611.97L4436.08 2872.13L4489.74 3232.63L4163.51 3070.1L4034.21 2778.52L4163.51 2228.33L4331.99 2551.59L4691.46 2611.97Z" fill="#E0A300"/>
<path d="M4163.51 2228.33V3070.1L3837.15 3232.63L3890.94 2872.13L3635.56 2611.97L3995.03 2551.59L4163.51 2228.33Z" fill="#FFC61B"/>
<path d="M3506.24 2611.97L3250.87 2872.13L3304.53 3232.63L2978.29 3070.1L2848.99 2778.52L2978.29 2228.33L3146.78 2551.59L3506.24 2611.97Z" fill="#E0A300"/>
<path d="M2978.29 2228.33V3070.1L2651.93 3232.63L2705.72 2872.13L2450.34 2611.97L2809.81 2551.59L2978.29 2228.33Z" fill="#FFC61B"/>
<path d="M2321.05 2611.97L2065.68 2872.13L2119.34 3232.63L1793.1 3070.1L1663.8 2778.52L1793.1 2228.33L1961.59 2551.59L2321.05 2611.97Z" fill="#E0A300"/>
<path d="M1793.1 2228.33V3070.1L1466.74 3232.63L1520.53 2872.13L1265.15 2611.97L1624.62 2551.59L1793.1 2228.33Z" fill="#FFC61B"/>
</svg>
